<svg xmlns="http://www.w3.org/2000/svg" xmlns:xlink="http://www.w3.org/1999/xlink" width="500" zoomAndPan="magnify" viewBox="0 0 375 374.999991" height="500" preserveAspectRatio="xMidYMid meet" version="1.0"><defs><clipPath id="1b28233bb3"><path d="M 332 127 L 372.921875 127 L 372.921875 168 L 332 168 Z M 332 127 " clip-rule="nonzero"/></clipPath><clipPath id="6af17ba9c3"><path d="M 332 207 L 372.921875 207 L 372.921875 247 L 332 247 Z M 332 207 " clip-rule="nonzero"/></clipPath><clipPath id="8e94fd6a81"><path d="M 2.421875 127 L 43 127 L 43 168 L 2.421875 168 Z M 2.421875 127 " clip-rule="nonzero"/></clipPath><clipPath id="00ba9108ec"><path d="M 2.421875 207 L 43 207 L 43 247 L 2.421875 247 Z M 2.421875 207 " clip-rule="nonzero"/></clipPath></defs><path fill="#6366f1" d="M 248.234375 259.664062 L 126.535156 259.664062 C 114.015625 259.664062 103.691406 249.335938 103.691406 236.816406 L 103.691406 138.183594 C 103.691406 125.441406 114.015625 115.117188 126.535156 115.117188 L 248.234375 115.117188 C 260.976562 115.117188 271.300781 125.441406 271.300781 138.183594 L 271.300781 236.816406 C 271.300781 249.335938 260.976562 259.664062 248.234375 259.664062 Z M 130.710938 213.96875 C 130.269531 213.96875 129.832031 213.96875 129.394531 213.75 C 127.414062 213.09375 126.535156 210.894531 127.414062 208.917969 L 135.324219 189.148438 L 135.324219 188.929688 L 149.601562 153.339844 C 149.601562 153.339844 149.601562 153.121094 149.601562 153.121094 C 149.820312 152.683594 150.042969 152.242188 150.480469 152.023438 C 150.699219 151.582031 151.140625 151.363281 151.578125 151.144531 C 151.578125 151.144531 151.578125 151.144531 151.800781 151.144531 C 152.238281 150.925781 152.457031 150.925781 152.898438 150.925781 C 153.335938 150.925781 153.777344 150.925781 154.214844 151.144531 C 154.214844 151.144531 154.433594 151.144531 154.433594 151.144531 C 154.875 151.363281 155.3125 151.582031 155.535156 152.023438 C 155.972656 152.242188 156.191406 152.683594 156.414062 153.121094 C 156.414062 153.121094 156.414062 153.339844 156.414062 153.339844 L 170.691406 188.929688 L 170.691406 189.148438 L 178.597656 208.917969 C 179.257812 210.894531 178.378906 213.09375 176.621094 213.75 C 174.644531 214.410156 172.449219 213.53125 171.789062 211.773438 L 164.761719 194.199219 L 141.253906 194.199219 L 134.226562 211.773438 C 133.566406 213.09375 132.25 213.96875 130.710938 213.96875 Z M 214.40625 214.191406 L 194.855469 214.191406 C 192.878906 214.191406 191.339844 212.652344 191.339844 210.675781 C 191.339844 208.480469 192.878906 206.941406 194.855469 206.941406 L 210.671875 206.941406 L 210.671875 157.953125 L 194.855469 157.953125 C 192.878906 157.953125 191.339844 156.417969 191.339844 154.4375 C 191.339844 152.242188 192.878906 150.703125 194.855469 150.703125 L 233.738281 150.703125 C 235.714844 150.703125 237.472656 152.242188 237.472656 154.4375 C 237.472656 156.417969 235.714844 157.953125 233.738281 157.953125 L 217.921875 157.953125 L 217.921875 206.941406 L 233.738281 206.941406 C 235.714844 206.941406 237.472656 208.480469 237.472656 210.675781 C 237.472656 212.652344 235.714844 214.191406 233.738281 214.191406 Z M 161.902344 186.730469 L 152.898438 164.542969 L 144.109375 186.730469 Z M 161.902344 186.730469 " fill-opacity="1" fill-rule="evenodd"/><path fill="#6366f1" d="M 168.054688 122.585938 C 166.078125 122.585938 164.320312 120.828125 164.320312 118.851562 L 164.320312 36.035156 C 164.320312 34.058594 166.078125 32.300781 168.054688 32.300781 C 170.03125 32.300781 171.570312 34.058594 171.570312 36.035156 L 171.570312 118.851562 C 171.570312 120.828125 170.03125 122.585938 168.054688 122.585938 Z M 168.054688 122.585938 " fill-opacity="1" fill-rule="evenodd"/><path fill="#6366f1" d="M 168.054688 39.769531 C 157.070312 39.769531 148.066406 30.761719 148.066406 19.78125 C 148.066406 9.015625 157.070312 0.0078125 168.054688 0.0078125 C 179.039062 0.0078125 187.824219 9.015625 187.824219 19.78125 C 187.824219 30.761719 179.039062 39.769531 168.054688 39.769531 Z M 168.054688 39.769531 " fill-opacity="1" fill-rule="evenodd"/><path fill="#6366f1" d="M 206.9375 122.585938 C 204.960938 122.585938 203.203125 120.828125 203.203125 118.851562 L 203.203125 84.582031 C 203.203125 82.605469 204.960938 80.847656 206.9375 80.847656 C 208.914062 80.847656 210.671875 82.605469 210.671875 84.582031 L 210.671875 118.851562 C 210.671875 120.828125 208.914062 122.585938 206.9375 122.585938 Z M 206.9375 122.585938 " fill-opacity="1" fill-rule="evenodd"/><path fill="#6366f1" d="M 206.9375 88.316406 C 195.953125 88.316406 187.167969 79.3125 187.167969 68.328125 C 187.167969 57.5625 195.953125 48.558594 206.9375 48.558594 C 217.921875 48.558594 226.707031 57.5625 226.707031 68.328125 C 226.707031 79.3125 217.921875 88.316406 206.9375 88.316406 Z M 206.9375 88.316406 " fill-opacity="1" fill-rule="evenodd"/><path fill="#6366f1" d="M 245.820312 122.585938 C 243.84375 122.585938 242.085938 120.828125 242.085938 118.851562 L 242.085938 65.253906 C 242.085938 54.488281 250.871094 45.703125 261.636719 45.703125 L 284.921875 45.703125 C 286.898438 45.703125 288.65625 47.457031 288.65625 49.4375 C 288.65625 51.414062 286.898438 53.171875 284.921875 53.171875 L 261.636719 53.171875 C 255.046875 53.171875 249.554688 58.441406 249.554688 65.253906 L 249.554688 118.851562 C 249.554688 120.828125 247.796875 122.585938 245.820312 122.585938 Z M 245.820312 122.585938 " fill-opacity="1" fill-rule="evenodd"/><path fill="#6366f1" d="M 301.175781 69.207031 C 290.191406 69.207031 281.1875 60.417969 281.1875 49.4375 C 281.1875 38.453125 290.191406 29.664062 301.175781 29.664062 C 312.160156 29.664062 320.945312 38.453125 320.945312 49.4375 C 320.945312 60.417969 312.160156 69.207031 301.175781 69.207031 Z M 301.175781 69.207031 " fill-opacity="1" fill-rule="evenodd"/><path fill="#6366f1" d="M 129.171875 122.585938 C 126.976562 122.585938 125.4375 120.828125 125.4375 118.851562 L 125.4375 65.253906 C 125.4375 58.441406 119.945312 53.171875 113.355469 53.171875 L 90.070312 53.171875 C 87.875 53.171875 86.335938 51.414062 86.335938 49.4375 C 86.335938 47.457031 87.875 45.703125 90.070312 45.703125 L 113.355469 45.703125 C 124.121094 45.703125 132.6875 54.488281 132.6875 65.253906 L 132.6875 118.851562 C 132.6875 120.828125 131.148438 122.585938 129.171875 122.585938 Z M 129.171875 122.585938 " fill-opacity="1" fill-rule="evenodd"/><path fill="#6366f1" d="M 73.816406 69.207031 C 62.832031 69.207031 54.046875 60.417969 54.046875 49.4375 C 54.046875 38.453125 62.832031 29.664062 73.816406 29.664062 C 84.800781 29.664062 93.585938 38.453125 93.585938 49.4375 C 93.585938 60.417969 84.800781 69.207031 73.816406 69.207031 Z M 73.816406 69.207031 " fill-opacity="1" fill-rule="evenodd"/><path fill="#6366f1" d="M 336.542969 151.363281 L 267.566406 151.363281 C 265.589844 151.363281 263.832031 149.605469 263.832031 147.628906 C 263.832031 145.652344 265.589844 144.113281 267.566406 144.113281 L 336.542969 144.113281 C 338.519531 144.113281 340.058594 145.652344 340.058594 147.628906 C 340.058594 149.605469 338.519531 151.363281 336.542969 151.363281 Z M 336.542969 151.363281 " fill-opacity="1" fill-rule="evenodd"/><g clip-path="url(#1b28233bb3)"><path fill="#6366f1" d="M 352.582031 167.621094 C 341.816406 167.621094 332.808594 158.613281 332.808594 147.628906 C 332.808594 136.644531 341.816406 127.859375 352.582031 127.859375 C 363.5625 127.859375 372.570312 136.644531 372.570312 147.628906 C 372.570312 158.613281 363.5625 167.621094 352.582031 167.621094 Z M 352.582031 167.621094 " fill-opacity="1" fill-rule="evenodd"/></g><path fill="#6366f1" d="M 288.214844 191.125 L 267.566406 191.125 C 265.589844 191.125 263.832031 189.585938 263.832031 187.390625 C 263.832031 185.414062 265.589844 183.875 267.566406 183.875 L 288.214844 183.875 C 290.191406 183.875 291.730469 185.414062 291.730469 187.390625 C 291.730469 189.585938 290.191406 191.125 288.214844 191.125 Z M 288.214844 191.125 " fill-opacity="1" fill-rule="evenodd"/><path fill="#6366f1" d="M 304.253906 207.378906 C 293.488281 207.378906 284.480469 198.375 284.480469 187.390625 C 284.480469 176.625 293.488281 167.621094 304.253906 167.621094 C 315.234375 167.621094 324.242188 176.625 324.242188 187.390625 C 324.242188 198.375 315.234375 207.378906 304.253906 207.378906 Z M 304.253906 207.378906 " fill-opacity="1" fill-rule="evenodd"/><path fill="#6366f1" d="M 336.542969 230.664062 L 267.566406 230.664062 C 265.589844 230.664062 263.832031 229.128906 263.832031 226.929688 C 263.832031 224.953125 265.589844 223.417969 267.566406 223.417969 L 336.542969 223.417969 C 338.519531 223.417969 340.058594 224.953125 340.058594 226.929688 C 340.058594 229.128906 338.519531 230.664062 336.542969 230.664062 Z M 336.542969 230.664062 " fill-opacity="1" fill-rule="evenodd"/><g clip-path="url(#6af17ba9c3)"><path fill="#6366f1" d="M 352.582031 246.921875 C 341.816406 246.921875 332.808594 237.914062 332.808594 226.929688 C 332.808594 216.167969 341.816406 207.160156 352.582031 207.160156 C 363.5625 207.160156 372.570312 216.167969 372.570312 226.929688 C 372.570312 237.914062 363.5625 246.921875 352.582031 246.921875 Z M 352.582031 246.921875 " fill-opacity="1" fill-rule="evenodd"/></g><path fill="#6366f1" d="M 168.054688 342.480469 C 166.078125 342.480469 164.320312 340.941406 164.320312 338.964844 L 164.320312 256.148438 C 164.320312 253.949219 166.078125 252.414062 168.054688 252.414062 C 170.03125 252.414062 171.570312 253.949219 171.570312 256.148438 L 171.570312 338.964844 C 171.570312 340.941406 170.03125 342.480469 168.054688 342.480469 Z M 168.054688 342.480469 " fill-opacity="1" fill-rule="evenodd"/><path fill="#6366f1" d="M 168.054688 374.992188 C 157.070312 374.992188 148.066406 365.984375 148.066406 355 C 148.066406 344.015625 157.070312 335.230469 168.054688 335.230469 C 179.039062 335.230469 187.824219 344.015625 187.824219 355 C 187.824219 365.984375 179.039062 374.992188 168.054688 374.992188 Z M 168.054688 374.992188 " fill-opacity="1" fill-rule="evenodd"/><path fill="#6366f1" d="M 206.9375 293.929688 C 204.960938 293.929688 203.203125 292.394531 203.203125 290.417969 L 203.203125 256.148438 C 203.203125 253.949219 204.960938 252.414062 206.9375 252.414062 C 208.914062 252.414062 210.671875 253.949219 210.671875 256.148438 L 210.671875 290.417969 C 210.671875 292.394531 208.914062 293.929688 206.9375 293.929688 Z M 206.9375 293.929688 " fill-opacity="1" fill-rule="evenodd"/><path fill="#6366f1" d="M 206.9375 326.441406 C 195.953125 326.441406 187.167969 317.4375 187.167969 306.453125 C 187.167969 295.46875 195.953125 286.683594 206.9375 286.683594 C 217.921875 286.683594 226.707031 295.46875 226.707031 306.453125 C 226.707031 317.4375 217.921875 326.441406 206.9375 326.441406 Z M 206.9375 326.441406 " fill-opacity="1" fill-rule="evenodd"/><path fill="#6366f1" d="M 284.921875 329.078125 L 261.636719 329.078125 C 250.871094 329.078125 242.085938 320.511719 242.085938 309.746094 L 242.085938 256.148438 C 242.085938 253.949219 243.84375 252.414062 245.820312 252.414062 C 247.796875 252.414062 249.554688 253.949219 249.554688 256.148438 L 249.554688 309.746094 C 249.554688 316.339844 255.046875 321.828125 261.636719 321.828125 L 284.921875 321.828125 C 286.898438 321.828125 288.65625 323.367188 288.65625 325.5625 C 288.65625 327.542969 286.898438 329.078125 284.921875 329.078125 Z M 284.921875 329.078125 " fill-opacity="1" fill-rule="evenodd"/><path fill="#6366f1" d="M 301.175781 345.335938 C 290.191406 345.335938 281.1875 336.328125 281.1875 325.5625 C 281.1875 314.582031 290.191406 305.574219 301.175781 305.574219 C 312.160156 305.574219 320.945312 314.582031 320.945312 325.5625 C 320.945312 336.328125 312.160156 345.335938 301.175781 345.335938 Z M 301.175781 345.335938 " fill-opacity="1" fill-rule="evenodd"/><path fill="#6366f1" d="M 113.355469 329.078125 L 90.070312 329.078125 C 87.875 329.078125 86.335938 327.542969 86.335938 325.5625 C 86.335938 323.367188 87.875 321.828125 90.070312 321.828125 L 113.355469 321.828125 C 119.945312 321.828125 125.4375 316.339844 125.4375 309.746094 L 125.4375 256.148438 C 125.4375 253.949219 126.976562 252.414062 129.171875 252.414062 C 131.148438 252.414062 132.6875 253.949219 132.6875 256.148438 L 132.6875 309.746094 C 132.6875 320.511719 124.121094 329.078125 113.355469 329.078125 Z M 113.355469 329.078125 " fill-opacity="1" fill-rule="evenodd"/><path fill="#6366f1" d="M 73.816406 345.335938 C 62.832031 345.335938 54.046875 336.328125 54.046875 325.5625 C 54.046875 314.582031 62.832031 305.574219 73.816406 305.574219 C 84.800781 305.574219 93.585938 314.582031 93.585938 325.5625 C 93.585938 336.328125 84.800781 345.335938 73.816406 345.335938 Z M 73.816406 345.335938 " fill-opacity="1" fill-rule="evenodd"/><path fill="#6366f1" d="M 107.425781 151.363281 L 38.449219 151.363281 C 36.472656 151.363281 34.714844 149.824219 34.714844 147.847656 C 34.714844 145.652344 36.472656 144.113281 38.449219 144.113281 L 107.425781 144.113281 C 109.402344 144.113281 110.941406 145.652344 110.941406 147.847656 C 110.941406 149.824219 109.402344 151.363281 107.425781 151.363281 Z M 107.425781 151.363281 " fill-opacity="1" fill-rule="evenodd"/><g clip-path="url(#8e94fd6a81)"><path fill="#6366f1" d="M 22.191406 167.621094 C 11.429688 167.621094 2.421875 158.832031 2.421875 147.847656 C 2.421875 136.867188 11.429688 127.859375 22.191406 127.859375 C 33.175781 127.859375 42.183594 136.867188 42.183594 147.847656 C 42.183594 158.832031 33.175781 167.621094 22.191406 167.621094 Z M 22.191406 167.621094 " fill-opacity="1" fill-rule="evenodd"/></g><path fill="#6366f1" d="M 107.425781 191.125 L 86.777344 191.125 C 84.800781 191.125 83.042969 189.585938 83.042969 187.609375 C 83.042969 185.632812 84.800781 183.875 86.777344 183.875 L 107.425781 183.875 C 109.402344 183.875 110.941406 185.632812 110.941406 187.609375 C 110.941406 189.585938 109.402344 191.125 107.425781 191.125 Z M 107.425781 191.125 " fill-opacity="1" fill-rule="evenodd"/><path fill="#6366f1" d="M 70.519531 207.378906 C 59.535156 207.378906 50.75 198.59375 50.75 187.609375 C 50.75 176.625 59.535156 167.621094 70.519531 167.621094 C 81.503906 167.621094 90.511719 176.625 90.511719 187.609375 C 90.511719 198.59375 81.503906 207.378906 70.519531 207.378906 Z M 70.519531 207.378906 " fill-opacity="1" fill-rule="evenodd"/><path fill="#6366f1" d="M 107.425781 230.886719 L 38.449219 230.886719 C 36.472656 230.886719 34.714844 229.128906 34.714844 227.152344 C 34.714844 225.175781 36.472656 223.417969 38.449219 223.417969 L 107.425781 223.417969 C 109.402344 223.417969 110.941406 225.175781 110.941406 227.152344 C 110.941406 229.128906 109.402344 230.886719 107.425781 230.886719 Z M 107.425781 230.886719 " fill-opacity="1" fill-rule="evenodd"/><g clip-path="url(#00ba9108ec)"><path fill="#6366f1" d="M 22.191406 246.921875 C 11.429688 246.921875 2.421875 238.132812 2.421875 227.152344 C 2.421875 216.167969 11.429688 207.378906 22.191406 207.378906 C 33.175781 207.378906 42.183594 216.167969 42.183594 227.152344 C 42.183594 238.132812 33.175781 246.921875 22.191406 246.921875 Z M 22.191406 246.921875 " fill-opacity="1" fill-rule="evenodd"/></g></svg>