<svg xmlns="http://www.w3.org/2000/svg" xmlns:xlink="http://www.w3.org/1999/xlink" width="500" zoomAndPan="magnify" viewBox="0 0 375 374.999991" height="500" preserveAspectRatio="xMidYMid meet" version="1.0"><defs><clipPath id="dd66d46184"><path d="M 0 99.84375 L 285 99.84375 L 285 242 L 0 242 Z M 0 99.84375 " clip-rule="nonzero"/></clipPath><clipPath id="fa16dbfeec"><path d="M 0 252 L 375 252 L 375 275.34375 L 0 275.34375 Z M 0 252 " clip-rule="nonzero"/></clipPath></defs><path fill="#6366f1" d="M 252.933594 241.203125 L 103.300781 241.203125 C 102.964844 244.386719 102.210938 247.402344 101.207031 250.25 L 257.039062 250.25 C 255.027344 247.652344 253.601562 244.554688 252.933594 241.203125 Z M 252.933594 241.203125 " fill-opacity="1" fill-rule="nonzero"/><path fill="#6366f1" d="M 297.417969 232.15625 C 297.753906 233.664062 297.839844 235.171875 297.839844 236.679688 C 297.839844 249.246094 287.699219 259.382812 275.132812 259.382812 C 264.160156 259.382812 255.027344 251.59375 252.847656 241.203125 L 243.632812 241.203125 C 245.8125 256.617188 259.132812 268.429688 275.050781 268.429688 C 292.558594 268.429688 306.804688 254.1875 306.804688 236.679688 C 306.804688 235.171875 306.71875 233.664062 306.46875 232.15625 Z M 297.417969 232.15625 " fill-opacity="1" fill-rule="nonzero"/><g clip-path="url(#dd66d46184)"><path fill="#6366f1" d="M 273.542969 99.867188 C 268.933594 99.867188 264.996094 102.628906 263.238281 106.570312 L 188.171875 106.570312 C 186.410156 102.628906 182.472656 99.867188 177.867188 99.867188 C 173.257812 99.867188 169.320312 102.628906 167.558594 106.570312 L 135.808594 106.570312 C 134.046875 102.628906 130.109375 99.867188 125.503906 99.867188 C 119.304688 99.867188 114.277344 104.894531 114.277344 111.09375 C 114.277344 111.761719 114.359375 112.433594 114.445312 113.019531 L 75.570312 154.070312 C 72.386719 157.507812 67.863281 159.433594 63.171875 159.433594 L 14.578125 159.433594 C 6.535156 159.515625 0 166.050781 0 174.09375 L 0 226.625 C 0 234.667969 6.535156 241.203125 14.578125 241.203125 L 40.382812 241.203125 C 40.046875 239.695312 39.964844 238.1875 39.964844 236.679688 C 39.964844 235.085938 40.128906 233.578125 40.382812 232.15625 L 14.914062 232.15625 C 11.730469 232.15625 9.046875 229.558594 9.046875 226.289062 L 9.046875 186.664062 L 30.746094 186.664062 C 38.789062 186.664062 45.324219 180.128906 45.324219 172.085938 L 45.324219 168.566406 L 67.945312 168.566406 C 72.050781 168.566406 75.90625 166.890625 78.753906 163.957031 L 119.636719 120.8125 C 121.3125 121.816406 123.324219 122.488281 125.503906 122.488281 C 130.109375 122.488281 134.046875 119.722656 135.808594 115.785156 L 167.558594 115.785156 C 168.0625 116.875 168.734375 117.960938 169.570312 118.882812 L 136.058594 154.324219 C 135.976562 154.40625 135.890625 154.492188 135.808594 154.574219 C 134.132812 153.570312 132.121094 152.984375 130.027344 152.984375 C 125.417969 152.984375 121.480469 155.746094 119.722656 159.683594 L 95.507812 159.683594 L 86.878906 168.566406 L 119.722656 168.566406 C 121.480469 172.503906 125.417969 175.269531 130.027344 175.269531 C 136.226562 175.269531 141.253906 170.242188 141.253906 164.042969 C 141.253906 163.371094 141.167969 162.699219 141.085938 162.03125 L 178.621094 122.402344 C 182.722656 122.152344 186.242188 119.636719 188.003906 116.121094 C 189.09375 115.867188 190.179688 115.699219 191.355469 115.699219 L 263.238281 115.699219 C 264.996094 119.636719 268.933594 122.402344 273.542969 122.402344 C 279.742188 122.402344 284.769531 117.375 284.769531 111.175781 C 284.769531 104.976562 279.824219 99.867188 273.542969 99.867188 Z M 36.359375 171.832031 C 36.359375 175.015625 33.761719 177.699219 30.496094 177.699219 L 9.046875 177.699219 L 9.046875 174.429688 C 9.046875 171.246094 11.644531 168.566406 14.914062 168.566406 L 36.359375 168.566406 Z M 177.949219 116.371094 C 175.015625 116.371094 172.671875 114.023438 172.671875 111.09375 C 172.671875 108.160156 175.015625 105.8125 177.949219 105.8125 C 180.882812 105.8125 183.226562 108.160156 183.226562 111.09375 C 183.226562 114.023438 180.796875 116.371094 177.949219 116.371094 Z M 273.542969 116.371094 C 270.609375 116.371094 268.265625 114.023438 268.265625 111.09375 C 268.265625 108.160156 270.609375 105.8125 273.542969 105.8125 C 276.472656 105.8125 278.820312 108.160156 278.820312 111.09375 C 278.820312 114.023438 276.472656 116.371094 273.542969 116.371094 Z M 273.542969 116.371094 " fill-opacity="1" fill-rule="nonzero"/></g><path fill="#6366f1" d="M 294.320312 152.730469 C 289.710938 152.730469 285.773438 155.496094 284.015625 159.433594 L 216.488281 159.433594 C 214.730469 155.496094 210.789062 152.730469 206.183594 152.730469 C 201.574219 152.730469 197.636719 155.496094 195.878906 159.433594 L 156.082031 159.433594 L 147.453125 168.566406 L 195.878906 168.566406 C 197.636719 172.503906 201.574219 175.269531 206.183594 175.269531 C 210.789062 175.269531 214.730469 172.503906 216.488281 168.566406 L 284.015625 168.566406 C 285.773438 172.503906 289.710938 175.269531 294.320312 175.269531 C 300.519531 175.269531 305.546875 170.242188 305.546875 164.042969 C 305.628906 157.84375 300.601562 152.730469 294.320312 152.730469 Z M 206.183594 169.320312 C 203.25 169.320312 200.90625 166.972656 200.90625 164.042969 C 200.90625 161.109375 203.25 158.761719 206.183594 158.761719 C 209.117188 158.761719 211.460938 161.109375 211.460938 164.042969 C 211.460938 166.972656 209.03125 169.320312 206.183594 169.320312 Z M 206.183594 169.320312 " fill-opacity="1" fill-rule="nonzero"/><path fill="#6366f1" d="M 226.875 223.023438 C 225.117188 219.085938 221.179688 216.320312 216.570312 216.320312 C 211.964844 216.320312 208.027344 219.085938 206.265625 223.023438 L 80.847656 223.023438 C 82.859375 225.703125 84.28125 228.71875 84.953125 232.070312 L 206.265625 232.070312 C 208.027344 236.007812 211.964844 238.773438 216.570312 238.773438 C 221.179688 238.773438 225.117188 236.007812 226.875 232.070312 L 252.933594 232.070312 C 253.601562 228.71875 255.027344 225.621094 257.039062 223.023438 Z M 216.570312 232.910156 C 213.640625 232.910156 211.292969 230.5625 211.292969 227.628906 C 211.292969 224.699219 213.640625 222.351562 216.570312 222.351562 C 219.503906 222.351562 221.851562 224.699219 221.851562 227.628906 C 221.851562 230.5625 219.421875 232.910156 216.570312 232.910156 Z M 216.570312 232.910156 " fill-opacity="1" fill-rule="nonzero"/><path fill="#6366f1" d="M 335.203125 225.453125 C 330.597656 225.453125 326.660156 228.21875 324.898438 232.15625 L 297.417969 232.15625 C 297.753906 233.664062 297.839844 235.171875 297.839844 236.679688 C 297.839844 238.269531 297.671875 239.777344 297.417969 241.203125 L 324.898438 241.203125 C 326.660156 245.140625 330.597656 247.90625 335.203125 247.90625 C 341.402344 247.90625 346.429688 242.878906 346.429688 236.679688 C 346.515625 230.480469 341.402344 225.453125 335.203125 225.453125 Z M 335.203125 225.453125 " fill-opacity="1" fill-rule="nonzero"/><g clip-path="url(#fa16dbfeec)"><path fill="#6366f1" d="M 363.773438 252.679688 C 359.164062 252.679688 355.226562 255.445312 353.46875 259.382812 L 4.523438 259.382812 C 2.011719 259.382812 0 261.394531 0 263.90625 C 0 266.421875 2.011719 268.429688 4.523438 268.429688 L 353.382812 268.429688 C 355.144531 272.371094 359.082031 275.132812 363.691406 275.132812 C 369.890625 275.132812 374.917969 270.105469 374.917969 263.90625 C 375 257.707031 369.972656 252.679688 363.773438 252.679688 Z M 363.773438 269.1875 C 360.839844 269.1875 358.496094 266.839844 358.496094 263.90625 C 358.496094 260.976562 360.839844 258.628906 363.773438 258.628906 C 366.707031 258.628906 369.050781 260.976562 369.050781 263.90625 C 369.050781 266.839844 366.621094 269.1875 363.773438 269.1875 Z M 363.773438 269.1875 " fill-opacity="1" fill-rule="nonzero"/></g><path fill="#6366f1" d="M 333.195312 180.042969 C 328.585938 180.042969 324.648438 182.808594 322.890625 186.746094 L 267.34375 186.746094 C 265.582031 182.808594 261.644531 180.042969 257.039062 180.042969 C 252.429688 180.042969 248.492188 182.808594 246.734375 186.746094 L 111.175781 186.746094 C 108.664062 186.746094 106.652344 188.757812 106.652344 191.269531 C 106.652344 193.785156 108.664062 195.792969 111.175781 195.792969 L 246.734375 195.792969 C 248.492188 199.730469 252.429688 202.496094 257.039062 202.496094 C 261.644531 202.496094 265.582031 199.730469 267.34375 195.792969 L 322.890625 195.792969 C 324.648438 199.730469 328.585938 202.496094 333.195312 202.496094 C 339.394531 202.496094 344.421875 197.46875 344.421875 191.269531 C 344.421875 185.070312 339.394531 180.042969 333.195312 180.042969 Z M 257.039062 196.546875 C 254.105469 196.546875 251.757812 194.203125 251.757812 191.269531 C 251.757812 188.335938 254.105469 185.992188 257.039062 185.992188 C 259.96875 185.992188 262.316406 188.335938 262.316406 191.269531 C 262.316406 194.203125 259.886719 196.546875 257.039062 196.546875 Z M 333.195312 196.546875 C 330.261719 196.546875 327.914062 194.203125 327.914062 191.269531 C 327.914062 188.335938 330.261719 185.992188 333.195312 185.992188 C 336.125 185.992188 338.472656 188.335938 338.472656 191.269531 C 338.472656 194.203125 336.125 196.546875 333.195312 196.546875 Z M 333.195312 196.546875 " fill-opacity="1" fill-rule="nonzero"/><path fill="#6366f1" d="M 84.871094 241.203125 C 82.773438 251.59375 73.644531 259.382812 62.582031 259.382812 C 50.015625 259.382812 39.878906 249.246094 39.878906 236.679688 C 39.878906 224.113281 50.015625 213.972656 62.582031 213.972656 C 73.558594 213.972656 82.691406 221.765625 84.871094 232.15625 L 94.085938 232.15625 C 91.90625 216.738281 78.585938 204.925781 62.667969 204.925781 C 45.15625 204.925781 30.914062 219.167969 30.914062 236.679688 C 30.914062 254.1875 45.15625 268.429688 62.667969 268.429688 C 78.667969 268.429688 91.90625 256.535156 94.085938 241.203125 Z M 84.871094 241.203125 " fill-opacity="1" fill-rule="nonzero"/><path fill="#6366f1" d="M 46.332031 237.265625 C 46.332031 227.210938 54.457031 219 64.59375 219 C 65.265625 219 66.019531 219 66.6875 219.085938 C 65.179688 218.667969 63.503906 218.414062 61.828125 218.414062 C 52.109375 218.414062 44.152344 226.289062 44.152344 236.09375 C 44.152344 242.710938 47.753906 248.40625 53.117188 251.507812 C 49.011719 248.15625 46.332031 243.046875 46.332031 237.265625 Z M 46.332031 237.265625 " fill-opacity="1" fill-rule="nonzero"/><path fill="#6366f1" d="M 259.214844 237.265625 C 259.214844 227.210938 267.34375 219 277.480469 219 C 278.148438 219 278.902344 219 279.574219 219.085938 C 278.066406 218.667969 276.390625 218.414062 274.714844 218.414062 C 264.996094 218.414062 257.039062 226.289062 257.039062 236.09375 C 257.039062 242.710938 260.640625 248.40625 266.003906 251.507812 C 261.8125 248.15625 259.214844 243.046875 259.214844 237.265625 Z M 259.214844 237.265625 " fill-opacity="1" fill-rule="nonzero"/></svg>