<svg xmlns="http://www.w3.org/2000/svg" xmlns:xlink="http://www.w3.org/1999/xlink" width="500" zoomAndPan="magnify" viewBox="0 0 375 374.999991" height="500" preserveAspectRatio="xMidYMid meet" version="1.0"><defs><clipPath id="40d8a55f08"><path d="M 23 17 L 352 17 L 352 352.5 L 23 352.5 Z M 23 17 " clip-rule="nonzero"/></clipPath></defs><path fill="#6366f1" d="M 175.753906 11.746094 L 193.371094 11.746094 L 193.371094 29.363281 L 175.753906 29.363281 Z M 162.949219 54.011719 L 165.070312 65.566406 C 168.566406 64.925781 172.164062 64.597656 175.753906 64.597656 C 185.15625 64.597656 194.136719 66.75 202.441406 70.996094 L 207.789062 60.539062 C 201.332031 57.238281 194.542969 55 187.5 53.824219 L 187.5 41.105469 L 199.242188 41.105469 C 202.484375 41.105469 205.117188 38.476562 205.117188 35.234375 L 205.117188 5.871094 C 205.117188 2.628906 202.484375 0 199.242188 0 L 169.878906 0 C 166.636719 0 164.007812 2.628906 164.007812 5.871094 L 164.007812 35.234375 C 164.007812 38.476562 166.636719 41.105469 169.878906 41.105469 L 175.753906 41.105469 L 175.753906 52.851562 C 171.453125 52.851562 167.144531 53.242188 162.949219 54.011719 " fill-opacity="1" fill-rule="nonzero"/><path fill="#6366f1" d="M 99.410156 46.980469 L 64.175781 46.980469 L 64.175781 11.746094 L 99.410156 11.746094 Z M 75.921875 123.320312 L 58.304688 123.320312 L 58.304688 105.703125 L 75.921875 105.703125 Z M 81.792969 93.960938 L 52.429688 93.960938 C 49.1875 93.960938 46.558594 96.589844 46.558594 99.832031 L 46.558594 129.195312 C 46.558594 132.4375 49.1875 135.066406 52.429688 135.066406 L 81.792969 135.066406 C 85.035156 135.066406 87.667969 132.4375 87.667969 129.195312 L 87.667969 117.449219 L 105.53125 117.449219 C 105.375 119.390625 105.285156 121.347656 105.285156 123.320312 C 105.285156 125.457031 105.382812 127.609375 105.570312 129.722656 L 117.269531 128.667969 C 117.109375 126.902344 117.027344 125.105469 117.027344 123.320312 C 117.027344 101.148438 129.304688 81.097656 149.0625 70.996094 L 143.71875 60.539062 C 138.820312 63.042969 134.316406 66.0625 130.234375 69.5 L 111.15625 50.421875 L 111.15625 5.871094 C 111.15625 2.628906 108.527344 0 105.285156 0 L 58.304688 0 C 55.0625 0 52.429688 2.628906 52.429688 5.871094 L 52.429688 52.851562 C 52.429688 56.09375 55.0625 58.722656 58.304688 58.722656 L 102.851562 58.722656 L 121.921875 77.792969 C 115.085938 85.851562 110.148438 95.375 107.503906 105.703125 L 87.667969 105.703125 L 87.667969 99.832031 C 87.667969 96.589844 85.035156 93.960938 81.792969 93.960938 " fill-opacity="1" fill-rule="nonzero"/><g clip-path="url(#40d8a55f08)"><path fill="#6366f1" d="M 287.328125 29.363281 L 340.183594 29.363281 L 340.183594 82.214844 L 287.328125 82.214844 Z M 293.203125 135.066406 L 316.691406 135.066406 L 316.691406 158.554688 L 293.203125 158.554688 Z M 257.96875 188.34375 L 257.96875 233.511719 L 240.96875 267.507812 C 240.5625 268.320312 240.351562 269.222656 240.351562 270.132812 L 240.351562 340.601562 L 175.753906 340.601562 L 175.753906 270.132812 C 175.753906 268.757812 175.273438 267.429688 174.390625 266.375 L 146.390625 232.773438 L 146.390625 202.09375 L 158.136719 190.351562 L 158.136719 223.152344 L 169.878906 223.152344 L 169.878906 121.617188 C 169.878906 119.320312 171.75 117.449219 174.050781 117.449219 C 175.902344 117.449219 177.550781 118.695312 178.0625 120.472656 L 187.5 153.507812 L 187.5 193.792969 L 199.242188 193.792969 L 199.242188 160.832031 L 210.988281 164.746094 L 210.988281 193.792969 L 222.734375 193.792969 L 222.734375 168.660156 L 234.476562 172.578125 L 234.476562 193.792969 L 246.222656 193.792969 L 246.222656 176.492188 L 250.4375 177.898438 C 254.941406 179.398438 257.96875 183.59375 257.96875 188.34375 Z M 70.050781 223.152344 L 34.8125 223.152344 L 34.8125 187.917969 L 70.050781 187.917969 Z M 281.457031 93.960938 L 346.054688 93.960938 C 349.296875 93.960938 351.925781 91.328125 351.925781 88.085938 L 351.925781 23.488281 C 351.925781 20.246094 349.296875 17.617188 346.054688 17.617188 L 281.457031 17.617188 C 278.214844 17.617188 275.585938 20.246094 275.585938 23.488281 L 275.585938 61.34375 L 235.707031 86.265625 C 231.703125 79.796875 226.628906 73.941406 220.597656 68.960938 L 213.121094 78.015625 C 226.691406 89.226562 234.476562 105.738281 234.476562 123.320312 C 234.476562 135.4375 230.878906 146.898438 224.050781 156.722656 L 212.308594 152.808594 C 219.003906 144.523438 222.734375 134.167969 222.734375 123.320312 C 222.734375 97.417969 201.65625 76.34375 175.753906 76.34375 C 149.847656 76.34375 128.773438 97.417969 128.773438 123.320312 C 128.773438 125.5625 128.933594 127.820312 129.25 130.027344 L 140.875 128.363281 C 140.640625 126.707031 140.519531 125.011719 140.519531 123.320312 C 140.519531 103.890625 156.324219 88.085938 175.753906 88.085938 C 195.183594 88.085938 210.988281 103.890625 210.988281 123.320312 C 210.988281 132.976562 207.058594 142.113281 200.136719 148.75 L 198.164062 148.09375 L 189.351562 117.246094 C 187.414062 110.449219 181.117188 105.703125 174.050781 105.703125 C 165.277344 105.703125 158.136719 112.84375 158.136719 121.617188 L 158.136719 153.851562 C 153.007812 150.890625 148.671875 146.65625 145.546875 141.476562 L 135.488281 147.535156 C 140.789062 156.335938 148.726562 163.085938 158.136719 166.886719 L 158.136719 173.742188 L 153.996094 177.878906 C 138.898438 171.871094 126.988281 159.941406 121.027344 144.675781 L 110.089844 148.949219 C 110.59375 150.238281 111.132812 151.503906 111.707031 152.753906 L 74.234375 176.171875 L 28.941406 176.171875 C 25.699219 176.171875 23.070312 178.804688 23.070312 182.046875 L 23.070312 229.027344 C 23.070312 232.269531 25.699219 234.898438 28.941406 234.898438 L 75.921875 234.898438 C 79.164062 234.898438 81.792969 232.269531 81.792969 229.027344 L 81.792969 185.300781 L 117.480469 163 C 124.410156 173.199219 133.902344 181.402344 145.085938 186.789062 L 136.367188 195.511719 C 135.265625 196.613281 134.644531 198.105469 134.644531 199.664062 L 134.644531 234.898438 C 134.644531 236.273438 135.128906 237.601562 136.007812 238.65625 L 164.007812 272.257812 L 164.007812 346.476562 C 164.007812 349.71875 166.636719 352.347656 169.878906 352.347656 L 246.222656 352.347656 C 249.464844 352.347656 252.09375 349.71875 252.09375 346.476562 L 252.09375 271.519531 L 269.09375 237.523438 C 269.5 236.710938 269.710938 235.808594 269.710938 234.898438 L 269.710938 188.34375 C 269.710938 178.535156 263.457031 169.855469 254.152344 166.753906 L 235.566406 160.5625 C 240.164062 153.164062 243.351562 144.953125 244.976562 136.402344 L 281.457031 145.523438 L 281.457031 164.429688 C 281.457031 167.671875 284.085938 170.300781 287.328125 170.300781 L 322.566406 170.300781 C 325.808594 170.300781 328.4375 167.671875 328.4375 164.429688 L 328.4375 129.195312 C 328.4375 125.949219 325.808594 123.320312 322.566406 123.320312 L 287.328125 123.320312 C 284.085938 123.320312 281.457031 125.949219 281.457031 129.195312 L 281.457031 133.417969 L 246.195312 124.601562 C 246.203125 124.175781 246.222656 123.75 246.222656 123.320312 C 246.222656 114.085938 244.433594 105.09375 241.054688 96.773438 L 275.585938 75.191406 L 275.585938 88.085938 C 275.585938 91.328125 278.214844 93.960938 281.457031 93.960938 " fill-opacity="1" fill-rule="nonzero"/></g></svg>