<svg xmlns="http://www.w3.org/2000/svg" xmlns:xlink="http://www.w3.org/1999/xlink" width="1920" zoomAndPan="magnify" height="1080" preserveAspectRatio="xMidYMid meet" version="1.0"><defs><g/><clipPath id="64cb5a89b1"><path d="M 405.277344 396 L 421 396 L 421 416 L 405.277344 416 Z M 405.277344 396 " clip-rule="nonzero"/></clipPath><clipPath id="a151e5dd6b"><path d="M 405.277344 405 L 421 405 L 421 425 L 405.277344 425 Z M 405.277344 405 " clip-rule="nonzero"/></clipPath><clipPath id="03dc8297cb"><path d="M 405.277344 417 L 421 417 L 421 436 L 405.277344 436 Z M 405.277344 417 " clip-rule="nonzero"/></clipPath><clipPath id="deba7fe38e"><path d="M 405.277344 426 L 421 426 L 421 446 L 405.277344 446 Z M 405.277344 426 " clip-rule="nonzero"/></clipPath><clipPath id="1ab076337b"><path d="M 437 375.609375 L 453 375.609375 L 453 395 L 437 395 Z M 437 375.609375 " clip-rule="nonzero"/></clipPath><clipPath id="3881b3afc9"><path d="M 422 375.609375 L 438 375.609375 L 438 395 L 422 395 Z M 422 375.609375 " clip-rule="nonzero"/></clipPath><clipPath id="7cb5b0ebd0"><path d="M 405.277344 385 L 422 385 L 422 405 L 405.277344 405 Z M 405.277344 385 " clip-rule="nonzero"/></clipPath><clipPath id="7f194280ca"><path d="M 422 436 L 438 436 L 438 455.109375 L 422 455.109375 Z M 422 436 " clip-rule="nonzero"/></clipPath><clipPath id="cc58dd60d2"><path d="M 491 386 L 507.277344 386 L 507.277344 405 L 491 405 Z M 491 386 " clip-rule="nonzero"/></clipPath><clipPath id="7f8f23a0fc"><path d="M 491 406 L 507.277344 406 L 507.277344 425 L 491 425 Z M 491 406 " clip-rule="nonzero"/></clipPath><clipPath id="2e6db85fda"><path d="M 492 417 L 507.277344 417 L 507.277344 436 L 492 436 Z M 492 417 " clip-rule="nonzero"/></clipPath><clipPath id="07bbb26464"><path d="M 492 426 L 507.277344 426 L 507.277344 446 L 492 446 Z M 492 426 " clip-rule="nonzero"/></clipPath></defs><g clip-path="url(#64cb5a89b1)"><path fill="#6366f1" d="M 405.445312 396.585938 C 410.457031 399.671875 415.464844 402.753906 420.472656 405.835938 C 420.457031 405.890625 420.457031 405.941406 420.4375 405.953125 C 415.441406 409.03125 410.445312 412.105469 405.445312 415.179688 Z M 405.445312 396.585938 " fill-opacity="1" fill-rule="nonzero"/></g><g clip-path="url(#a151e5dd6b)"><path fill="#6366f1" d="M 420.484375 405.855469 L 420.484375 424.59375 C 415.445312 421.472656 410.453125 418.382812 405.371094 415.234375 C 410.425781 412.097656 415.421875 408.996094 420.484375 405.855469 " fill-opacity="1" fill-rule="nonzero"/></g><g clip-path="url(#03dc8297cb)"><path fill="#6366f1" d="M 405.503906 417.269531 C 410.515625 420.355469 415.523438 423.4375 420.53125 426.519531 C 420.515625 426.574219 420.515625 426.625 420.496094 426.636719 C 415.5 429.714844 410.503906 432.789062 405.503906 435.863281 Z M 405.503906 417.269531 " fill-opacity="1" fill-rule="nonzero"/></g><g clip-path="url(#deba7fe38e)"><path fill="#6366f1" d="M 420.542969 426.539062 L 420.542969 445.277344 C 415.503906 442.15625 410.511719 439.066406 405.429688 435.917969 C 410.484375 432.78125 415.480469 429.679688 420.542969 426.539062 " fill-opacity="1" fill-rule="nonzero"/></g><g clip-path="url(#1ab076337b)"><path fill="#6366f1" d="M 437.5625 375.609375 C 442.574219 378.699219 447.589844 381.792969 452.59375 384.878906 C 452.582031 384.9375 452.582031 384.988281 452.5625 385 C 447.5625 388.082031 442.5625 391.164062 437.5625 394.246094 Z M 437.5625 375.609375 " fill-opacity="1" fill-rule="nonzero"/></g><g clip-path="url(#3881b3afc9)"><path fill="#6366f1" d="M 437.5625 375.621094 L 437.5625 394.242188 C 432.550781 391.140625 427.582031 388.070312 422.523438 384.941406 C 427.554688 381.824219 432.523438 378.742188 437.5625 375.621094 " fill-opacity="1" fill-rule="nonzero"/></g><path fill="#6366f1" d="M 421.007812 385.824219 C 426.019531 388.917969 431.03125 392.007812 436.039062 395.09375 C 436.023438 395.152344 436.027344 395.203125 436.007812 395.214844 C 431.007812 398.300781 426.007812 401.378906 421.007812 404.460938 Z M 421.007812 385.824219 " fill-opacity="1" fill-rule="nonzero"/><g clip-path="url(#7cb5b0ebd0)"><path fill="#6366f1" d="M 421.007812 385.835938 L 421.007812 404.460938 C 415.992188 401.359375 411.027344 398.285156 405.96875 395.15625 C 411 392.039062 415.96875 388.960938 421.007812 385.835938 " fill-opacity="1" fill-rule="nonzero"/></g><path fill="#6366f1" d="M 422.308594 427.101562 C 427.320312 430.183594 432.328125 433.269531 437.332031 436.347656 C 437.320312 436.40625 437.320312 436.457031 437.300781 436.46875 C 432.304688 439.546875 427.304688 442.621094 422.308594 445.695312 Z M 422.308594 427.101562 " fill-opacity="1" fill-rule="nonzero"/><g clip-path="url(#7f194280ca)"><path fill="#6366f1" d="M 437.34375 436.371094 L 437.34375 455.109375 C 432.304688 451.988281 427.3125 448.894531 422.230469 445.746094 C 427.285156 442.613281 432.28125 439.511719 437.34375 436.371094 " fill-opacity="1" fill-rule="nonzero"/></g><path fill="#6366f1" d="M 439.253906 454.933594 C 444.261719 451.851562 449.273438 448.765625 454.277344 445.6875 C 454.261719 445.628906 454.265625 445.578125 454.246094 445.566406 C 449.25 442.488281 444.25 439.414062 439.253906 436.339844 Z M 439.253906 454.933594 " fill-opacity="1" fill-rule="nonzero"/><path fill="#6366f1" d="M 454.289062 445.664062 L 454.289062 426.925781 C 449.253906 430.046875 444.257812 433.140625 439.175781 436.289062 C 444.230469 439.425781 449.226562 442.523438 454.289062 445.664062 " fill-opacity="1" fill-rule="nonzero"/><path fill="#6366f1" d="M 439.3125 434.25 C 444.324219 431.167969 449.332031 428.082031 454.335938 425.003906 C 454.324219 424.945312 454.324219 424.894531 454.304688 424.882812 C 449.308594 421.804688 444.308594 418.730469 439.3125 415.65625 Z M 439.3125 434.25 " fill-opacity="1" fill-rule="nonzero"/><path fill="#6366f1" d="M 454.351562 424.980469 L 454.351562 406.242188 C 449.3125 409.363281 444.316406 412.457031 439.234375 415.605469 C 444.289062 418.742188 449.285156 421.839844 454.351562 424.980469 " fill-opacity="1" fill-rule="nonzero"/><path fill="#6366f1" d="M 459.28125 386.230469 C 464.292969 389.3125 469.300781 392.398438 474.304688 395.476562 C 474.292969 395.535156 474.292969 395.585938 474.273438 395.597656 C 469.277344 398.675781 464.277344 401.75 459.28125 404.824219 Z M 459.28125 386.230469 " fill-opacity="1" fill-rule="nonzero"/><path fill="#6366f1" d="M 474.320312 395.5 L 474.320312 414.238281 C 469.28125 411.117188 464.289062 408.023438 459.207031 404.875 C 464.261719 401.738281 469.257812 398.640625 474.320312 395.5 " fill-opacity="1" fill-rule="nonzero"/><path fill="#6366f1" d="M 459.339844 406.484375 C 464.351562 409.566406 469.359375 412.652344 474.363281 415.734375 C 474.351562 415.789062 474.351562 415.839844 474.332031 415.851562 C 469.335938 418.929688 464.335938 422.003906 459.339844 425.078125 Z M 459.339844 406.484375 " fill-opacity="1" fill-rule="nonzero"/><path fill="#6366f1" d="M 474.378906 415.753906 L 474.378906 434.492188 C 469.339844 431.371094 464.347656 428.277344 459.261719 425.128906 C 464.320312 421.996094 469.3125 418.894531 474.378906 415.753906 " fill-opacity="1" fill-rule="nonzero"/><path fill="#6366f1" d="M 459.132812 426.652344 C 464.140625 429.734375 469.152344 432.816406 474.15625 435.898438 C 474.140625 435.957031 474.144531 436.007812 474.125 436.019531 C 469.128906 439.097656 464.128906 442.171875 459.132812 445.246094 Z M 459.132812 426.652344 " fill-opacity="1" fill-rule="nonzero"/><path fill="#6366f1" d="M 474.167969 435.921875 L 474.167969 454.660156 C 469.132812 451.539062 464.136719 448.445312 459.054688 445.296875 C 464.109375 442.160156 469.105469 439.0625 474.167969 435.921875 " fill-opacity="1" fill-rule="nonzero"/><path fill="#6366f1" d="M 506.960938 376.734375 C 501.953125 379.820312 496.941406 382.902344 491.9375 385.984375 C 491.953125 386.039062 491.949219 386.089844 491.972656 386.101562 C 496.964844 389.179688 501.964844 392.253906 506.960938 395.328125 Z M 506.960938 376.734375 " fill-opacity="1" fill-rule="nonzero"/><g clip-path="url(#cc58dd60d2)"><path fill="#6366f1" d="M 491.925781 386.003906 L 491.925781 404.742188 C 496.964844 401.621094 501.957031 398.53125 507.039062 395.382812 C 501.984375 392.246094 496.988281 389.148438 491.925781 386.003906 " fill-opacity="1" fill-rule="nonzero"/></g><path fill="#6366f1" d="M 506.902344 396.988281 C 501.894531 400.074219 496.882812 403.15625 491.878906 406.238281 C 491.894531 406.296875 491.890625 406.347656 491.914062 406.359375 C 496.910156 409.4375 501.90625 412.507812 506.902344 415.585938 Z M 506.902344 396.988281 " fill-opacity="1" fill-rule="nonzero"/><g clip-path="url(#7f8f23a0fc)"><path fill="#6366f1" d="M 491.894531 406.257812 L 491.894531 424.996094 C 496.929688 421.875 501.925781 418.785156 507.007812 415.636719 C 501.953125 412.5 496.957031 409.402344 491.894531 406.257812 " fill-opacity="1" fill-rule="nonzero"/></g><g clip-path="url(#2e6db85fda)"><path fill="#6366f1" d="M 507.113281 417.15625 C 502.101562 420.238281 497.089844 423.324219 492.085938 426.40625 C 492.101562 426.460938 492.101562 426.511719 492.121094 426.523438 C 497.117188 429.601562 502.113281 432.675781 507.113281 435.75 Z M 507.113281 417.15625 " fill-opacity="1" fill-rule="nonzero"/></g><g clip-path="url(#07bbb26464)"><path fill="#6366f1" d="M 492.074219 426.425781 L 492.074219 445.164062 C 497.113281 442.042969 502.105469 438.949219 507.1875 435.804688 C 502.132812 432.667969 497.136719 429.566406 492.074219 426.425781 " fill-opacity="1" fill-rule="nonzero"/></g><path fill="#6366f1" d="M 475.714844 434.226562 C 480.726562 431.144531 485.738281 428.058594 490.742188 424.980469 C 490.726562 424.921875 490.726562 424.871094 490.707031 424.859375 C 485.710938 421.78125 480.714844 418.707031 475.714844 415.632812 Z M 475.714844 434.226562 " fill-opacity="1" fill-rule="nonzero"/><path fill="#6366f1" d="M 490.753906 425.171875 L 490.753906 406.433594 C 485.714844 409.554688 480.722656 412.648438 475.640625 415.796875 C 480.695312 418.933594 485.691406 422.03125 490.753906 425.171875 " fill-opacity="1" fill-rule="nonzero"/><g fill="#4f46e5" fill-opacity="1"><g transform="translate(983.816126, 390.007801)"><g><path d="M 13.71875 0.40625 C 12.207031 0.394531 10.75 0.140625 9.34375 -0.359375 C 7.9375 -0.867188 6.675781 -1.679688 5.5625 -2.796875 C 4.445312 -3.921875 3.566406 -5.410156 2.921875 -7.265625 C 2.273438 -9.117188 1.945312 -11.394531 1.9375 -14.09375 C 1.945312 -17.425781 2.445312 -20.28125 3.4375 -22.65625 C 4.425781 -25.03125 5.816406 -26.847656 7.609375 -28.109375 C 9.398438 -29.378906 11.507812 -30.015625 13.9375 -30.015625 C 15.90625 -30.015625 17.640625 -29.628906 19.140625 -28.859375 C 20.648438 -28.085938 21.863281 -27.039062 22.78125 -25.71875 C 23.707031 -24.40625 24.269531 -22.925781 24.46875 -21.28125 L 18.3125 -21.28125 C 18.070312 -22.363281 17.566406 -23.195312 16.796875 -23.78125 C 16.023438 -24.375 15.070312 -24.671875 13.9375 -24.671875 C 12.019531 -24.671875 10.5625 -23.832031 9.5625 -22.15625 C 8.570312 -20.476562 8.066406 -18.175781 8.046875 -15.25 L 8.25 -15.25 C 8.90625 -16.5625 9.898438 -17.582031 11.234375 -18.3125 C 12.578125 -19.050781 14.0625 -19.421875 15.6875 -19.421875 C 17.4375 -19.421875 18.992188 -19.007812 20.359375 -18.1875 C 21.734375 -17.363281 22.8125 -16.234375 23.59375 -14.796875 C 24.382812 -13.367188 24.773438 -11.734375 24.765625 -9.890625 C 24.773438 -7.890625 24.3125 -6.109375 23.375 -4.546875 C 22.445312 -2.992188 21.15625 -1.773438 19.5 -0.890625 C 17.84375 -0.015625 15.914062 0.414062 13.71875 0.40625 Z M 13.6875 -4.5 C 15.132812 -4.5 16.332031 -5 17.28125 -6 C 18.238281 -7 18.71875 -8.238281 18.71875 -9.71875 C 18.71875 -11.175781 18.25 -12.40625 17.3125 -13.40625 C 16.375 -14.40625 15.179688 -14.90625 13.734375 -14.90625 C 12.785156 -14.90625 11.925781 -14.671875 11.15625 -14.203125 C 10.394531 -13.734375 9.789062 -13.101562 9.34375 -12.3125 C 8.90625 -11.53125 8.679688 -10.660156 8.671875 -9.703125 C 8.671875 -8.742188 8.890625 -7.867188 9.328125 -7.078125 C 9.765625 -6.285156 10.359375 -5.65625 11.109375 -5.1875 C 11.867188 -4.726562 12.726562 -4.5 13.6875 -4.5 Z M 13.6875 -4.5 "/></g></g></g><g fill="#6b7280" fill-opacity="1"><g transform="translate(513.49837, 441.29575)"><g><path d="M 40.296875 -36.359375 C 39.578125 -38.878906 38.25 -40.847656 36.3125 -42.265625 C 34.382812 -43.691406 31.960938 -44.40625 29.046875 -44.40625 C 24.929688 -44.40625 21.597656 -42.890625 19.046875 -39.859375 C 16.503906 -36.828125 15.234375 -32.515625 15.234375 -26.921875 C 15.234375 -21.304688 16.484375 -16.96875 18.984375 -13.90625 C 21.492188 -10.84375 24.878906 -9.3125 29.140625 -9.3125 C 32.921875 -9.3125 35.890625 -10.296875 38.046875 -12.265625 C 40.210938 -14.234375 41.328125 -16.878906 41.390625 -20.203125 L 29.859375 -20.203125 L 29.859375 -28.75 L 52.34375 -28.75 L 52.34375 -21.984375 C 52.34375 -17.273438 51.34375 -13.21875 49.34375 -9.8125 C 47.351562 -6.414062 44.613281 -3.804688 41.125 -1.984375 C 37.632812 -0.171875 33.625 0.734375 29.09375 0.734375 C 24.050781 0.734375 19.625 -0.378906 15.8125 -2.609375 C 12 -4.835938 9.03125 -8.007812 6.90625 -12.125 C 4.78125 -16.25 3.71875 -21.144531 3.71875 -26.8125 C 3.71875 -32.613281 4.828125 -37.578125 7.046875 -41.703125 C 9.273438 -45.835938 12.285156 -49 16.078125 -51.1875 C 19.878906 -53.375 24.140625 -54.46875 28.859375 -54.46875 C 32.910156 -54.46875 36.582031 -53.695312 39.875 -52.15625 C 43.164062 -50.613281 45.859375 -48.484375 47.953125 -45.765625 C 50.054688 -43.046875 51.351562 -39.910156 51.84375 -36.359375 Z M 40.296875 -36.359375 "/></g></g></g><g fill="#6b7280" fill-opacity="1"><g transform="translate(569.691536, 441.29575)"><g><path d="M 4.671875 0 L 4.671875 -53.734375 L 25.859375 -53.734375 C 31.960938 -53.734375 36.695312 -52.140625 40.0625 -48.953125 C 43.4375 -45.765625 45.125 -41.503906 45.125 -36.171875 C 45.125 -32.503906 44.304688 -29.363281 42.671875 -26.75 C 41.035156 -24.144531 38.6875 -22.1875 35.625 -20.875 L 47.03125 0 L 34.5 0 L 24.3125 -19.046875 L 16.03125 -19.046875 L 16.03125 0 Z M 16.03125 -28.171875 L 23.734375 -28.171875 C 30.191406 -28.171875 33.421875 -30.835938 33.421875 -36.171875 C 33.421875 -41.679688 30.175781 -44.4375 23.6875 -44.4375 L 16.03125 -44.4375 Z M 16.03125 -28.171875 "/></g></g></g><g fill="#6b7280" fill-opacity="1"><g transform="translate(618.17191, 441.29575)"><g><path d="M 16.03125 -53.734375 L 16.03125 0 L 4.671875 0 L 4.671875 -53.734375 Z M 16.03125 -53.734375 "/></g></g></g><g fill="#6b7280" fill-opacity="1"><g transform="translate(638.896748, 441.29575)"><g><path d="M 4.09375 0 L 4.09375 -6.734375 L 30.90625 -44.359375 L 4.046875 -44.359375 L 4.046875 -53.734375 L 45.171875 -53.734375 L 45.171875 -46.984375 L 18.34375 -9.359375 L 45.234375 -9.359375 L 45.234375 0 Z M 4.09375 0 "/></g></g></g><g fill="#6b7280" fill-opacity="1"><g transform="translate(688.164144, 441.29575)"><g><path d="M 4.09375 0 L 4.09375 -6.734375 L 30.90625 -44.359375 L 4.046875 -44.359375 L 4.046875 -53.734375 L 45.171875 -53.734375 L 45.171875 -46.984375 L 18.34375 -9.359375 L 45.234375 -9.359375 L 45.234375 0 Z M 4.09375 0 "/></g></g></g><g fill="#a3a3a3" fill-opacity="1"><g transform="translate(737.431952, 441.29575)"><g><path d="M 6.5 0 L 6.5 -53.734375 L 13.015625 -53.734375 L 13.015625 -29.796875 L 41.65625 -29.796875 L 41.65625 -53.734375 L 48.171875 -53.734375 L 48.171875 0 L 41.65625 0 L 41.65625 -24.03125 L 13.015625 -24.03125 L 13.015625 0 Z M 6.5 0 "/></g></g></g><g fill="#a3a3a3" fill-opacity="1"><g transform="translate(792.103546, 441.29575)"><g><path d="M 8.703125 0 L 1.890625 0 L 21.609375 -53.734375 L 28.328125 -53.734375 L 48.0625 0 L 41.234375 0 L 35.828125 -15.21875 L 14.109375 -15.21875 Z M 16.15625 -20.984375 L 33.796875 -20.984375 L 25.1875 -45.234375 L 24.765625 -45.234375 Z M 16.15625 -20.984375 "/></g></g></g><g fill="#a3a3a3" fill-opacity="1"><g transform="translate(842.053021, 441.29575)"><g><path d="M 49.734375 -36.9375 L 43.234375 -36.9375 C 42.710938 -39.414062 41.707031 -41.503906 40.21875 -43.203125 C 38.726562 -44.898438 36.929688 -46.1875 34.828125 -47.0625 C 32.734375 -47.9375 30.5 -48.375 28.125 -48.375 C 24.875 -48.375 21.929688 -47.550781 19.296875 -45.90625 C 16.660156 -44.257812 14.566406 -41.835938 13.015625 -38.640625 C 11.472656 -35.441406 10.703125 -31.515625 10.703125 -26.859375 C 10.703125 -22.210938 11.472656 -18.285156 13.015625 -15.078125 C 14.566406 -11.878906 16.660156 -9.457031 19.296875 -7.8125 C 21.929688 -6.175781 24.875 -5.359375 28.125 -5.359375 C 30.5 -5.359375 32.734375 -5.789062 34.828125 -6.65625 C 36.929688 -7.53125 38.726562 -8.816406 40.21875 -10.515625 C 41.707031 -12.210938 42.710938 -14.304688 43.234375 -16.796875 L 49.734375 -16.796875 C 49.078125 -13.117188 47.722656 -9.972656 45.671875 -7.359375 C 43.628906 -4.742188 41.09375 -2.738281 38.0625 -1.34375 C 35.039062 0.0390625 31.726562 0.734375 28.125 0.734375 C 23.539062 0.734375 19.460938 -0.382812 15.890625 -2.625 C 12.328125 -4.863281 9.519531 -8.046875 7.46875 -12.171875 C 5.425781 -16.296875 4.40625 -21.191406 4.40625 -26.859375 C 4.40625 -32.523438 5.425781 -37.421875 7.46875 -41.546875 C 9.519531 -45.679688 12.328125 -48.867188 15.890625 -51.109375 C 19.460938 -53.347656 23.539062 -54.46875 28.125 -54.46875 C 31.726562 -54.46875 35.039062 -53.769531 38.0625 -52.375 C 41.09375 -50.988281 43.628906 -48.988281 45.671875 -46.375 C 47.722656 -43.757812 49.078125 -40.613281 49.734375 -36.9375 Z M 49.734375 -36.9375 "/></g></g></g><g fill="#a3a3a3" fill-opacity="1"><g transform="translate(895.780191, 441.29575)"><g><path d="M 6.5 0 L 6.5 -53.734375 L 13.015625 -53.734375 L 13.015625 -27.078125 L 13.640625 -27.078125 L 37.78125 -53.734375 L 46.28125 -53.734375 L 23.71875 -29.484375 L 46.28125 0 L 38.40625 0 L 19.734375 -24.96875 L 13.015625 -17.421875 L 13.015625 0 Z M 6.5 0 "/></g></g></g><g fill="#a3a3a3" fill-opacity="1"><g transform="translate(943.94575, 441.29575)"><g><path d="M 35.890625 -40.296875 C 35.578125 -42.953125 34.300781 -45.015625 32.0625 -46.484375 C 29.820312 -47.953125 27.078125 -48.6875 23.828125 -48.6875 C 20.253906 -48.6875 17.382812 -47.84375 15.21875 -46.15625 C 13.050781 -44.46875 11.96875 -42.335938 11.96875 -39.765625 C 11.96875 -37.847656 12.554688 -36.296875 13.734375 -35.109375 C 14.910156 -33.929688 16.304688 -33.015625 17.921875 -32.359375 C 19.546875 -31.703125 21.019531 -31.195312 22.34375 -30.84375 L 27.8125 -29.375 C 29.207031 -29.007812 30.765625 -28.503906 32.484375 -27.859375 C 34.210938 -27.210938 35.867188 -26.332031 37.453125 -25.21875 C 39.035156 -24.113281 40.34375 -22.691406 41.375 -20.953125 C 42.40625 -19.222656 42.921875 -17.101562 42.921875 -14.59375 C 42.921875 -11.6875 42.160156 -9.0625 40.640625 -6.71875 C 39.128906 -4.375 36.925781 -2.507812 34.03125 -1.125 C 31.144531 0.25 27.632812 0.9375 23.5 0.9375 C 17.726562 0.9375 13.144531 -0.421875 9.75 -3.140625 C 6.363281 -5.867188 4.515625 -9.4375 4.203125 -13.84375 L 10.90625 -13.84375 C 11.082031 -11.820312 11.769531 -10.148438 12.96875 -8.828125 C 14.164062 -7.503906 15.6875 -6.523438 17.53125 -5.890625 C 19.382812 -5.253906 21.375 -4.9375 23.5 -4.9375 C 25.988281 -4.9375 28.21875 -5.34375 30.1875 -6.15625 C 32.164062 -6.96875 33.734375 -8.101562 34.890625 -9.5625 C 36.046875 -11.019531 36.625 -12.726562 36.625 -14.6875 C 36.625 -16.46875 36.125 -17.914062 35.125 -19.03125 C 34.125 -20.15625 32.8125 -21.066406 31.1875 -21.765625 C 29.5625 -22.472656 27.804688 -23.085938 25.921875 -23.609375 L 19.3125 -25.5 C 15.113281 -26.707031 11.789062 -28.429688 9.34375 -30.671875 C 6.894531 -32.910156 5.671875 -35.835938 5.671875 -39.453125 C 5.671875 -42.460938 6.488281 -45.085938 8.125 -47.328125 C 9.757812 -49.578125 11.960938 -51.328125 14.734375 -52.578125 C 17.503906 -53.835938 20.601562 -54.46875 24.03125 -54.46875 C 27.488281 -54.46875 30.5625 -53.847656 33.25 -52.609375 C 35.945312 -51.378906 38.085938 -49.695312 39.671875 -47.5625 C 41.253906 -45.425781 42.09375 -43.003906 42.1875 -40.296875 Z M 35.890625 -40.296875 "/></g></g></g></svg>