<svg xmlns="http://www.w3.org/2000/svg" xmlns:xlink="http://www.w3.org/1999/xlink" width="500" zoomAndPan="magnify" viewBox="0 0 375 374.999991" height="500" preserveAspectRatio="xMidYMid meet" version="1.0"><defs><g/><clipPath id="5850cb0e46"><path d="M 19 156.230469 L 29 156.230469 L 29 168 L 19 168 Z M 19 156.230469 " clip-rule="nonzero"/></clipPath><clipPath id="0c0aeeccfb"><path d="M 10 156.230469 L 20 156.230469 L 20 168 L 10 168 Z M 10 156.230469 " clip-rule="nonzero"/></clipPath><clipPath id="ee5807ebe0"><path d="M 10 192 L 20 192 L 20 203.628906 L 10 203.628906 Z M 10 192 " clip-rule="nonzero"/></clipPath><clipPath id="d7bee880cb"><path d="M 20 192 L 30 192 L 30 203.628906 L 20 203.628906 Z M 20 192 " clip-rule="nonzero"/></clipPath><clipPath id="c8ad62e5e5"><path d="M 32 192 L 42 192 L 42 203.628906 L 32 203.628906 Z M 32 192 " clip-rule="nonzero"/></clipPath><clipPath id="42b77a26e4"><path d="M 51 156.230469 L 60.8125 156.230469 L 60.8125 168 L 51 168 Z M 51 156.230469 " clip-rule="nonzero"/></clipPath><clipPath id="3cd5199b89"><path d="M 51 162 L 60.8125 162 L 60.8125 174 L 51 174 Z M 51 162 " clip-rule="nonzero"/></clipPath><clipPath id="e62b1eccc7"><path d="M 51 168 L 60.8125 168 L 60.8125 181 L 51 181 Z M 51 168 " clip-rule="nonzero"/></clipPath><clipPath id="dd4aafc059"><path d="M 51 174 L 60.8125 174 L 60.8125 186 L 51 186 Z M 51 174 " clip-rule="nonzero"/></clipPath><clipPath id="8d7fee4895"><path d="M 51 181 L 60.8125 181 L 60.8125 193 L 51 193 Z M 51 181 " clip-rule="nonzero"/></clipPath><clipPath id="93c0c6ed59"><path d="M 51 186 L 60.8125 186 L 60.8125 198 L 51 198 Z M 51 186 " clip-rule="nonzero"/></clipPath></defs><path fill="#6366f1" d="M 0.101562 168.738281 C 3.085938 170.574219 6.074219 172.414062 9.058594 174.25 C 9.046875 174.285156 9.050781 174.316406 9.039062 174.324219 C 6.058594 176.15625 3.078125 177.988281 0.101562 179.824219 Z M 0.101562 168.738281 " fill-opacity="1" fill-rule="nonzero"/><path fill="#6366f1" d="M 9.066406 174.261719 L 9.066406 185.433594 C 6.0625 183.574219 3.082031 181.730469 0.0546875 179.855469 C 3.066406 177.984375 6.046875 176.136719 9.066406 174.261719 " fill-opacity="1" fill-rule="nonzero"/><path fill="#6366f1" d="M 0.136719 181.070312 C 3.121094 182.90625 6.109375 184.746094 9.09375 186.582031 C 9.082031 186.617188 9.085938 186.644531 9.074219 186.652344 C 6.09375 188.488281 3.113281 190.320312 0.136719 192.152344 Z M 0.136719 181.070312 " fill-opacity="1" fill-rule="nonzero"/><path fill="#6366f1" d="M 9.101562 186.59375 L 9.101562 197.765625 C 6.097656 195.90625 3.117188 194.0625 0.0898438 192.183594 C 3.101562 190.316406 6.082031 188.46875 9.101562 186.59375 " fill-opacity="1" fill-rule="nonzero"/><g clip-path="url(#5850cb0e46)"><path fill="#6366f1" d="M 19.246094 156.230469 C 22.234375 158.074219 25.222656 159.917969 28.210938 161.757812 C 28.199219 161.792969 28.199219 161.820312 28.1875 161.828125 C 25.207031 163.667969 22.226562 165.503906 19.246094 167.339844 Z M 19.246094 156.230469 " fill-opacity="1" fill-rule="nonzero"/></g><g clip-path="url(#0c0aeeccfb)"><path fill="#6366f1" d="M 19.246094 156.238281 L 19.246094 167.339844 C 16.257812 165.492188 13.296875 163.660156 10.28125 161.792969 C 13.28125 159.9375 16.242188 158.101562 19.246094 156.238281 " fill-opacity="1" fill-rule="nonzero"/></g><path fill="#6366f1" d="M 9.375 162.320312 C 12.367188 164.164062 15.355469 166.007812 18.339844 167.847656 C 18.332031 167.882812 18.332031 167.914062 18.320312 167.917969 C 15.339844 169.757812 12.359375 171.59375 9.375 173.433594 Z M 9.375 162.320312 " fill-opacity="1" fill-rule="nonzero"/><path fill="#6366f1" d="M 9.375 162.328125 L 9.375 173.429688 C 6.386719 171.582031 3.425781 169.75 0.410156 167.882812 C 3.410156 166.027344 6.375 164.191406 9.375 162.328125 " fill-opacity="1" fill-rule="nonzero"/><path fill="#6366f1" d="M 10.152344 186.929688 C 13.140625 188.769531 16.125 190.605469 19.109375 192.441406 C 19.101562 192.476562 19.101562 192.507812 19.089844 192.515625 C 16.113281 194.347656 13.132812 196.183594 10.152344 198.015625 Z M 10.152344 186.929688 " fill-opacity="1" fill-rule="nonzero"/><g clip-path="url(#ee5807ebe0)"><path fill="#6366f1" d="M 19.117188 192.457031 L 19.117188 203.628906 C 16.113281 201.765625 13.136719 199.921875 10.105469 198.046875 C 13.121094 196.175781 16.097656 194.328125 19.117188 192.457031 " fill-opacity="1" fill-rule="nonzero"/></g><g clip-path="url(#d7bee880cb)"><path fill="#6366f1" d="M 20.253906 203.523438 C 23.242188 201.683594 26.230469 199.847656 29.210938 198.007812 C 29.203125 197.976562 29.203125 197.945312 29.191406 197.9375 C 26.214844 196.101562 23.234375 194.269531 20.253906 192.4375 Z M 20.253906 203.523438 " fill-opacity="1" fill-rule="nonzero"/></g><path fill="#6366f1" d="M 29.21875 197.996094 L 29.21875 186.824219 C 26.214844 188.6875 23.238281 190.53125 20.210938 192.40625 C 23.222656 194.277344 26.203125 196.125 29.21875 197.996094 " fill-opacity="1" fill-rule="nonzero"/><path fill="#6366f1" d="M 20.289062 191.191406 C 23.277344 189.355469 26.265625 187.515625 29.246094 185.679688 C 29.238281 185.644531 29.238281 185.613281 29.226562 185.605469 C 26.25 183.773438 23.269531 181.9375 20.289062 180.105469 Z M 20.289062 191.191406 " fill-opacity="1" fill-rule="nonzero"/><path fill="#6366f1" d="M 29.253906 185.664062 L 29.253906 174.492188 C 26.25 176.355469 23.273438 178.199219 20.246094 180.074219 C 23.257812 181.945312 26.238281 183.792969 29.253906 185.664062 " fill-opacity="1" fill-rule="nonzero"/><path fill="#6366f1" d="M 32.195312 162.5625 C 35.183594 164.402344 38.167969 166.238281 41.152344 168.078125 C 41.144531 168.109375 41.144531 168.140625 41.132812 168.148438 C 38.152344 169.980469 35.175781 171.816406 32.195312 173.648438 Z M 32.195312 162.5625 " fill-opacity="1" fill-rule="nonzero"/><path fill="#6366f1" d="M 41.160156 168.089844 L 41.160156 179.261719 C 38.15625 177.398438 35.179688 175.554688 32.148438 173.679688 C 35.164062 171.808594 38.140625 169.960938 41.160156 168.089844 " fill-opacity="1" fill-rule="nonzero"/><path fill="#6366f1" d="M 32.230469 174.636719 C 35.21875 176.476562 38.203125 178.316406 41.1875 180.152344 C 41.179688 180.183594 41.179688 180.214844 41.167969 180.222656 C 38.1875 182.058594 35.210938 183.890625 32.230469 185.722656 Z M 32.230469 174.636719 " fill-opacity="1" fill-rule="nonzero"/><path fill="#6366f1" d="M 41.195312 180.164062 L 41.195312 191.335938 C 38.191406 189.476562 35.214844 187.632812 32.183594 185.753906 C 35.199219 183.882812 38.175781 182.035156 41.195312 180.164062 " fill-opacity="1" fill-rule="nonzero"/><path fill="#6366f1" d="M 32.105469 186.660156 C 35.09375 188.5 38.078125 190.335938 41.0625 192.175781 C 41.054688 192.207031 41.054688 192.238281 41.042969 192.246094 C 38.066406 194.082031 35.085938 195.914062 32.105469 197.746094 Z M 32.105469 186.660156 " fill-opacity="1" fill-rule="nonzero"/><g clip-path="url(#c8ad62e5e5)"><path fill="#6366f1" d="M 41.070312 192.1875 L 41.070312 203.359375 C 38.066406 201.5 35.089844 199.65625 32.058594 197.777344 C 35.074219 195.90625 38.050781 194.058594 41.070312 192.1875 " fill-opacity="1" fill-rule="nonzero"/></g><g clip-path="url(#42b77a26e4)"><path fill="#6366f1" d="M 60.621094 156.902344 C 57.632812 158.742188 54.648438 160.578125 51.664062 162.414062 C 51.671875 162.449219 51.671875 162.480469 51.683594 162.488281 C 54.664062 164.320312 57.640625 166.15625 60.621094 167.988281 Z M 60.621094 156.902344 " fill-opacity="1" fill-rule="nonzero"/></g><g clip-path="url(#3cd5199b89)"><path fill="#6366f1" d="M 51.65625 162.429688 L 51.65625 173.601562 C 54.660156 171.738281 57.636719 169.894531 60.667969 168.019531 C 57.652344 166.148438 54.675781 164.300781 51.65625 162.429688 " fill-opacity="1" fill-rule="nonzero"/></g><g clip-path="url(#e62b1eccc7)"><path fill="#6366f1" d="M 60.585938 168.976562 C 57.601562 170.816406 54.613281 172.65625 51.628906 174.492188 C 51.636719 174.523438 51.636719 174.554688 51.648438 174.5625 C 54.628906 176.398438 57.605469 178.230469 60.585938 180.0625 Z M 60.585938 168.976562 " fill-opacity="1" fill-rule="nonzero"/></g><g clip-path="url(#dd4aafc059)"><path fill="#6366f1" d="M 51.636719 174.503906 L 51.636719 185.675781 C 54.640625 183.816406 57.617188 181.972656 60.648438 180.09375 C 57.632812 178.222656 54.65625 176.375 51.636719 174.503906 " fill-opacity="1" fill-rule="nonzero"/></g><g clip-path="url(#8d7fee4895)"><path fill="#6366f1" d="M 60.710938 181 C 57.722656 182.839844 54.738281 184.675781 51.753906 186.515625 C 51.761719 186.546875 51.761719 186.578125 51.773438 186.585938 C 54.75 188.421875 57.730469 190.253906 60.710938 192.085938 Z M 60.710938 181 " fill-opacity="1" fill-rule="nonzero"/></g><g clip-path="url(#93c0c6ed59)"><path fill="#6366f1" d="M 51.746094 186.527344 L 51.746094 197.699219 C 54.75 195.835938 57.726562 193.992188 60.757812 192.117188 C 57.742188 190.246094 54.765625 188.398438 51.746094 186.527344 " fill-opacity="1" fill-rule="nonzero"/></g><path fill="#6366f1" d="M 41.992188 191.179688 C 44.980469 189.339844 47.96875 187.5 50.953125 185.664062 C 50.941406 185.628906 50.945312 185.601562 50.929688 185.59375 C 47.953125 183.757812 44.972656 181.925781 41.992188 180.09375 Z M 41.992188 191.179688 " fill-opacity="1" fill-rule="nonzero"/><path fill="#6366f1" d="M 50.957031 185.78125 L 50.957031 174.609375 C 47.953125 176.46875 44.976562 178.3125 41.949219 180.1875 C 44.960938 182.058594 47.941406 183.90625 50.957031 185.78125 " fill-opacity="1" fill-rule="nonzero"/><g fill="#4f46e5" fill-opacity="1"><g transform="translate(344.913506, 164.814897)"><g><path d="M 8.1875 0.234375 C 7.28125 0.234375 6.40625 0.0820312 5.5625 -0.21875 C 4.726562 -0.519531 3.976562 -1.003906 3.3125 -1.671875 C 2.65625 -2.335938 2.128906 -3.222656 1.734375 -4.328125 C 1.347656 -5.429688 1.15625 -6.789062 1.15625 -8.40625 C 1.15625 -10.394531 1.453125 -12.097656 2.046875 -13.515625 C 2.640625 -14.929688 3.46875 -16.015625 4.53125 -16.765625 C 5.601562 -17.515625 6.863281 -17.890625 8.3125 -17.890625 C 9.488281 -17.890625 10.523438 -17.660156 11.421875 -17.203125 C 12.316406 -16.742188 13.035156 -16.125 13.578125 -15.34375 C 14.128906 -14.5625 14.460938 -13.675781 14.578125 -12.6875 L 10.921875 -12.6875 C 10.773438 -13.332031 10.472656 -13.828125 10.015625 -14.171875 C 9.554688 -14.523438 8.988281 -14.703125 8.3125 -14.703125 C 7.164062 -14.703125 6.296875 -14.203125 5.703125 -13.203125 C 5.109375 -12.203125 4.804688 -10.832031 4.796875 -9.09375 L 4.921875 -9.09375 C 5.316406 -9.875 5.910156 -10.484375 6.703125 -10.921875 C 7.503906 -11.359375 8.382812 -11.578125 9.34375 -11.578125 C 10.394531 -11.578125 11.328125 -11.332031 12.140625 -10.84375 C 12.953125 -10.351562 13.59375 -9.679688 14.0625 -8.828125 C 14.539062 -7.972656 14.773438 -6.992188 14.765625 -5.890625 C 14.773438 -4.703125 14.5 -3.644531 13.9375 -2.71875 C 13.382812 -1.789062 12.613281 -1.0625 11.625 -0.53125 C 10.632812 -0.0078125 9.488281 0.242188 8.1875 0.234375 Z M 8.171875 -2.6875 C 9.023438 -2.6875 9.738281 -2.984375 10.3125 -3.578125 C 10.882812 -4.171875 11.164062 -4.910156 11.15625 -5.796875 C 11.164062 -6.660156 10.890625 -7.390625 10.328125 -7.984375 C 9.765625 -8.585938 9.050781 -8.890625 8.1875 -8.890625 C 7.625 -8.890625 7.113281 -8.75 6.65625 -8.46875 C 6.195312 -8.1875 5.835938 -7.8125 5.578125 -7.34375 C 5.316406 -6.875 5.179688 -6.351562 5.171875 -5.78125 C 5.171875 -5.207031 5.300781 -4.6875 5.5625 -4.21875 C 5.820312 -3.75 6.175781 -3.375 6.625 -3.09375 C 7.082031 -2.820312 7.597656 -2.6875 8.171875 -2.6875 Z M 8.171875 -2.6875 "/></g></g></g><g fill="#6b7280" fill-opacity="1"><g transform="translate(64.392668, 195.391849)"><g><path d="M 24.03125 -21.671875 C 23.601562 -23.179688 22.8125 -24.359375 21.65625 -25.203125 C 20.5 -26.054688 19.050781 -26.484375 17.3125 -26.484375 C 14.863281 -26.484375 12.878906 -25.578125 11.359375 -23.765625 C 9.847656 -21.953125 9.09375 -19.378906 9.09375 -16.046875 C 9.09375 -12.703125 9.835938 -10.113281 11.328125 -8.28125 C 12.816406 -6.457031 14.832031 -5.546875 17.375 -5.546875 C 19.625 -5.546875 21.394531 -6.132812 22.6875 -7.3125 C 23.976562 -8.488281 24.644531 -10.066406 24.6875 -12.046875 L 17.796875 -12.046875 L 17.796875 -17.140625 L 31.203125 -17.140625 L 31.203125 -13.109375 C 31.203125 -10.304688 30.609375 -7.890625 29.421875 -5.859375 C 28.234375 -3.828125 26.597656 -2.269531 24.515625 -1.1875 C 22.429688 -0.101562 20.039062 0.4375 17.34375 0.4375 C 14.34375 0.4375 11.703125 -0.222656 9.421875 -1.546875 C 7.148438 -2.878906 5.378906 -4.773438 4.109375 -7.234375 C 2.847656 -9.691406 2.21875 -12.609375 2.21875 -15.984375 C 2.21875 -19.441406 2.878906 -22.398438 4.203125 -24.859375 C 5.523438 -27.328125 7.316406 -29.210938 9.578125 -30.515625 C 11.847656 -31.816406 14.390625 -32.46875 17.203125 -32.46875 C 19.617188 -32.46875 21.804688 -32.007812 23.765625 -31.09375 C 25.734375 -30.175781 27.34375 -28.90625 28.59375 -27.28125 C 29.84375 -25.664062 30.613281 -23.796875 30.90625 -21.671875 Z M 24.03125 -21.671875 "/></g></g></g><g fill="#6b7280" fill-opacity="1"><g transform="translate(97.89404, 195.391849)"><g><path d="M 2.78125 0 L 2.78125 -32.03125 L 15.421875 -32.03125 C 19.054688 -32.03125 21.878906 -31.082031 23.890625 -29.1875 C 25.898438 -27.289062 26.90625 -24.75 26.90625 -21.5625 C 26.90625 -19.375 26.414062 -17.503906 25.4375 -15.953125 C 24.46875 -14.398438 23.066406 -13.234375 21.234375 -12.453125 L 28.046875 0 L 20.5625 0 L 14.5 -11.359375 L 9.5625 -11.359375 L 9.5625 0 Z M 9.5625 -16.796875 L 14.15625 -16.796875 C 18 -16.796875 19.921875 -18.382812 19.921875 -21.5625 C 19.921875 -24.851562 17.988281 -26.5 14.125 -26.5 L 9.5625 -26.5 Z M 9.5625 -16.796875 "/></g></g></g><g fill="#6b7280" fill-opacity="1"><g transform="translate(126.797183, 195.391849)"><g><path d="M 9.5625 -32.03125 L 9.5625 0 L 2.78125 0 L 2.78125 -32.03125 Z M 9.5625 -32.03125 "/></g></g></g><g fill="#6b7280" fill-opacity="1"><g transform="translate(139.152965, 195.391849)"><g><path d="M 2.4375 0 L 2.4375 -4.015625 L 18.421875 -26.453125 L 2.40625 -26.453125 L 2.40625 -32.03125 L 26.9375 -32.03125 L 26.9375 -28.015625 L 10.9375 -5.578125 L 26.96875 -5.578125 L 26.96875 0 Z M 2.4375 0 "/></g></g></g><g fill="#6b7280" fill-opacity="1"><g transform="translate(168.525316, 195.391849)"><g><path d="M 2.4375 0 L 2.4375 -4.015625 L 18.421875 -26.453125 L 2.40625 -26.453125 L 2.40625 -32.03125 L 26.9375 -32.03125 L 26.9375 -28.015625 L 10.9375 -5.578125 L 26.96875 -5.578125 L 26.96875 0 Z M 2.4375 0 "/></g></g></g><g fill="#a3a3a3" fill-opacity="1"><g transform="translate(197.897912, 195.391849)"><g><path d="M 3.875 0 L 3.875 -32.03125 L 7.765625 -32.03125 L 7.765625 -17.765625 L 24.84375 -17.765625 L 24.84375 -32.03125 L 28.71875 -32.03125 L 28.71875 0 L 24.84375 0 L 24.84375 -14.328125 L 7.765625 -14.328125 L 7.765625 0 Z M 3.875 0 "/></g></g></g><g fill="#a3a3a3" fill-opacity="1"><g transform="translate(230.49215, 195.391849)"><g><path d="M 5.1875 0 L 1.125 0 L 12.890625 -32.03125 L 16.890625 -32.03125 L 28.65625 0 L 24.59375 0 L 21.359375 -9.078125 L 8.421875 -9.078125 Z M 9.640625 -12.515625 L 20.140625 -12.515625 L 15.015625 -26.96875 L 14.765625 -26.96875 Z M 9.640625 -12.515625 "/></g></g></g><g fill="#a3a3a3" fill-opacity="1"><g transform="translate(260.271145, 195.391849)"><g><path d="M 29.65625 -22.03125 L 25.78125 -22.03125 C 25.46875 -23.507812 24.867188 -24.753906 23.984375 -25.765625 C 23.097656 -26.773438 22.023438 -27.539062 20.765625 -28.0625 C 19.515625 -28.582031 18.179688 -28.84375 16.765625 -28.84375 C 14.828125 -28.84375 13.070312 -28.351562 11.5 -27.375 C 9.9375 -26.394531 8.691406 -24.945312 7.765625 -23.03125 C 6.835938 -21.125 6.375 -18.785156 6.375 -16.015625 C 6.375 -13.242188 6.835938 -10.898438 7.765625 -8.984375 C 8.691406 -7.078125 9.9375 -5.632812 11.5 -4.65625 C 13.070312 -3.675781 14.828125 -3.1875 16.765625 -3.1875 C 18.179688 -3.1875 19.515625 -3.445312 20.765625 -3.96875 C 22.023438 -4.488281 23.097656 -5.253906 23.984375 -6.265625 C 24.867188 -7.285156 25.46875 -8.535156 25.78125 -10.015625 L 29.65625 -10.015625 C 29.257812 -7.816406 28.453125 -5.9375 27.234375 -4.375 C 26.015625 -2.820312 24.5 -1.628906 22.6875 -0.796875 C 20.882812 0.0234375 18.910156 0.4375 16.765625 0.4375 C 14.035156 0.4375 11.601562 -0.226562 9.46875 -1.5625 C 7.34375 -2.894531 5.671875 -4.789062 4.453125 -7.25 C 3.234375 -9.71875 2.625 -12.640625 2.625 -16.015625 C 2.625 -19.390625 3.234375 -22.304688 4.453125 -24.765625 C 5.671875 -27.234375 7.34375 -29.132812 9.46875 -30.46875 C 11.601562 -31.800781 14.035156 -32.46875 16.765625 -32.46875 C 18.910156 -32.46875 20.882812 -32.050781 22.6875 -31.21875 C 24.5 -30.394531 26.015625 -29.203125 27.234375 -27.640625 C 28.453125 -26.085938 29.257812 -24.21875 29.65625 -22.03125 Z M 29.65625 -22.03125 "/></g></g></g><g fill="#a3a3a3" fill-opacity="1"><g transform="translate(292.302334, 195.391849)"><g><path d="M 3.875 0 L 3.875 -32.03125 L 7.765625 -32.03125 L 7.765625 -16.140625 L 8.140625 -16.140625 L 22.53125 -32.03125 L 27.59375 -32.03125 L 14.140625 -17.578125 L 27.59375 0 L 22.90625 0 L 11.765625 -14.890625 L 7.765625 -10.390625 L 7.765625 0 Z M 3.875 0 "/></g></g></g><g fill="#a3a3a3" fill-opacity="1"><g transform="translate(321.017789, 195.391849)"><g><path d="M 21.390625 -24.03125 C 21.203125 -25.613281 20.441406 -26.84375 19.109375 -27.71875 C 17.773438 -28.59375 16.140625 -29.03125 14.203125 -29.03125 C 12.078125 -29.03125 10.363281 -28.523438 9.0625 -27.515625 C 7.769531 -26.515625 7.125 -25.25 7.125 -23.71875 C 7.125 -22.570312 7.476562 -21.644531 8.1875 -20.9375 C 8.894531 -20.226562 9.726562 -19.675781 10.6875 -19.28125 C 11.65625 -18.894531 12.535156 -18.597656 13.328125 -18.390625 L 16.578125 -17.515625 C 17.410156 -17.296875 18.335938 -16.992188 19.359375 -16.609375 C 20.390625 -16.222656 21.378906 -15.695312 22.328125 -15.03125 C 23.273438 -14.375 24.054688 -13.53125 24.671875 -12.5 C 25.285156 -11.46875 25.59375 -10.203125 25.59375 -8.703125 C 25.59375 -6.960938 25.140625 -5.394531 24.234375 -4 C 23.335938 -2.601562 22.023438 -1.492188 20.296875 -0.671875 C 18.566406 0.148438 16.472656 0.5625 14.015625 0.5625 C 10.578125 0.5625 7.84375 -0.25 5.8125 -1.875 C 3.789062 -3.5 2.6875 -5.628906 2.5 -8.265625 L 6.5 -8.265625 C 6.601562 -7.046875 7.015625 -6.039062 7.734375 -5.25 C 8.453125 -4.46875 9.359375 -3.882812 10.453125 -3.5 C 11.554688 -3.125 12.742188 -2.9375 14.015625 -2.9375 C 15.492188 -2.9375 16.820312 -3.175781 18 -3.65625 C 19.175781 -4.144531 20.109375 -4.820312 20.796875 -5.6875 C 21.484375 -6.5625 21.828125 -7.585938 21.828125 -8.765625 C 21.828125 -9.828125 21.53125 -10.691406 20.9375 -11.359375 C 20.34375 -12.023438 19.5625 -12.566406 18.59375 -12.984375 C 17.625 -13.398438 16.578125 -13.765625 15.453125 -14.078125 L 11.515625 -15.203125 C 9.015625 -15.921875 7.03125 -16.945312 5.5625 -18.28125 C 4.101562 -19.613281 3.375 -21.363281 3.375 -23.53125 C 3.375 -25.320312 3.859375 -26.882812 4.828125 -28.21875 C 5.804688 -29.5625 7.125 -30.601562 8.78125 -31.34375 C 10.4375 -32.09375 12.285156 -32.46875 14.328125 -32.46875 C 16.390625 -32.46875 18.222656 -32.097656 19.828125 -31.359375 C 21.441406 -30.628906 22.71875 -29.628906 23.65625 -28.359375 C 24.601562 -27.085938 25.101562 -25.644531 25.15625 -24.03125 Z M 21.390625 -24.03125 "/></g></g></g></svg>